<?xml version="1.0" standalone="no"?>
<!DOCTYPE svg PUBLIC "-//W3C//DTD SVG 20010904//EN"
 "http://www.w3.org/TR/2001/REC-SVG-20010904/DTD/svg10.dtd">
<svg version="1.0" xmlns="http://www.w3.org/2000/svg"
 width="1024.000000pt" height="1024.000000pt" viewBox="0 0 1024.000000 1024.000000"
 preserveAspectRatio="xMidYMid meet">
<metadata>
Created by potrace 1.11, written by Peter Selinger 2001-2013
</metadata>
<g transform="translate(0.000000,1024.000000) scale(0.100000,-0.100000)"
fill="#000000" stroke="none">
<path d="M4827 10234 c-2 -2 -39 -6 -83 -9 -43 -2 -99 -7 -124 -10 -25 -3 -67
-7 -95 -10 -27 -2 -50 -5 -50 -5 0 -1 -13 -3 -30 -5 -48 -5 -115 -16 -182 -29
-45 -9 -66 -9 -74 -2 -9 8 -10 8 -6 0 5 -8 -10 -14 -41 -20 -26 -4 -51 -9 -57
-10 -5 -2 -20 -5 -33 -8 -12 -3 -27 -8 -34 -12 -7 -5 -8 -3 -3 5 6 10 3 11
-11 3 -18 -9 -165 -48 -222 -58 -14 -3 -29 -8 -32 -12 -3 -4 -12 -8 -20 -9
-28 -3 -63 -12 -114 -30 -28 -9 -53 -18 -56 -18 -27 -6 -96 -28 -109 -35 -28
-14 -176 -65 -183 -62 -5 1 -8 -2 -8 -6 0 -5 -6 -9 -12 -9 -7 0 -39 -12 -71
-26 -32 -15 -64 -27 -72 -27 -8 0 -15 -4 -15 -10 0 -5 -9 -10 -20 -10 -11 0
-20 -5 -20 -11 0 -5 -4 -8 -9 -4 -5 3 -12 1 -16 -5 -4 -6 -11 -8 -16 -5 -5 4
-9 1 -9 -4 0 -6 -6 -11 -13 -11 -13 0 -278 -128 -287 -139 -3 -3 -25 -16 -50
-28 -48 -24 -119 -64 -160 -91 -14 -9 -28 -15 -32 -14 -5 1 -8 -2 -8 -8 0 -5
-7 -10 -15 -10 -9 0 -18 -7 -21 -15 -4 -8 -10 -12 -15 -9 -5 3 -12 -2 -15 -10
-3 -9 -10 -13 -15 -10 -5 3 -9 0 -9 -5 0 -6 -9 -11 -21 -11 -11 0 -17 -4 -14
-10 3 -5 -1 -10 -9 -10 -8 0 -20 -8 -25 -17 -6 -10 -11 -14 -11 -10 0 8 -53
-26 -78 -50 -8 -7 -18 -11 -23 -8 -5 4 -9 2 -9 -3 0 -5 -19 -22 -43 -38 -23
-16 -51 -37 -61 -46 -11 -10 -28 -20 -38 -24 -10 -3 -16 -10 -13 -15 4 -5 -1
-9 -9 -9 -9 0 -16 -4 -16 -10 0 -5 -6 -10 -14 -10 -8 0 -17 -7 -20 -16 -4 -9
-9 -14 -12 -11 -3 2 -15 -5 -28 -17 -12 -11 -36 -32 -53 -46 -64 -53 -148
-126 -169 -147 -13 -13 -26 -23 -29 -23 -9 0 -55 -52 -55 -62 0 -5 -3 -7 -7
-5 -5 2 -63 -52 -130 -120 -68 -67 -121 -123 -118 -123 2 0 -15 -20 -38 -44
-23 -24 -58 -62 -77 -86 -19 -23 -45 -54 -58 -69 -12 -14 -28 -33 -35 -41 -7
-8 -28 -35 -47 -60 -19 -25 -39 -50 -45 -56 -5 -6 -17 -22 -25 -34 -8 -12 -27
-38 -42 -58 -16 -19 -28 -38 -28 -43 0 -4 -9 -11 -20 -14 -11 -3 -20 -14 -20
-24 0 -10 -7 -24 -15 -31 -8 -7 -13 -16 -10 -20 3 -5 -4 -15 -15 -23 -11 -7
-17 -17 -13 -20 3 -4 1 -7 -5 -7 -7 0 -12 -7 -12 -15 0 -7 -8 -19 -18 -24 -9
-6 -13 -11 -8 -11 5 0 0 -10 -11 -22 -11 -13 -26 -38 -34 -55 -8 -18 -18 -33
-22 -33 -5 0 -5 -4 -2 -10 3 -5 2 -10 -4 -10 -5 0 -16 -12 -23 -27 -22 -44
-42 -77 -57 -95 -8 -10 -11 -18 -7 -18 4 0 0 -7 -8 -16 -9 -8 -14 -20 -11 -25
4 -5 2 -9 -3 -9 -10 0 -57 -90 -54 -103 1 -4 -5 -10 -13 -13 -8 -4 -15 -10
-15 -15 0 -4 -16 -42 -36 -83 -19 -42 -34 -77 -32 -80 2 -2 -4 -12 -13 -22
-17 -20 -89 -185 -89 -203 0 -6 -5 -11 -12 -11 -6 0 -9 -3 -5 -6 3 -3 -5 -31
-18 -62 -33 -81 -38 -96 -37 -104 1 -5 -3 -8 -9 -8 -5 0 -7 -4 -4 -10 3 -5 -1
-23 -10 -39 -8 -17 -17 -38 -18 -48 -2 -10 -9 -30 -15 -44 -9 -22 -24 -73 -38
-124 -1 -5 -7 -24 -12 -42 -6 -17 -8 -34 -4 -37 3 -3 1 -6 -5 -6 -5 0 -10 -6
-11 -12 -1 -15 -10 -53 -12 -53 -3 0 -11 -39 -13 -62 -1 -13 -5 -23 -8 -23 -5
0 -13 -35 -19 -82 -1 -4 -6 -22 -11 -40 -5 -18 -12 -46 -15 -63 -2 -16 -7 -37
-9 -45 -5 -17 -15 -73 -20 -112 -2 -15 -6 -31 -8 -35 -3 -4 -7 -30 -11 -58 -3
-27 -8 -61 -11 -74 -2 -13 -5 -41 -7 -62 -1 -22 -4 -39 -7 -39 -4 0 -7 -21 -8
-48 0 -26 -4 -69 -7 -97 -27 -227 -28 -911 -2 -954 4 -5 2 -13 -4 -16 -7 -4
-7 -11 -2 -18 8 -11 11 -31 15 -114 1 -13 3 -23 6 -23 4 0 6 -17 7 -38 1 -35
6 -73 19 -152 3 -19 8 -46 10 -60 2 -14 6 -36 9 -50 4 -14 8 -38 11 -55 2 -16
9 -47 14 -67 5 -21 7 -38 4 -38 -3 0 -1 -6 4 -12 6 -7 9 -21 8 -30 -2 -10 1
-18 6 -18 4 0 6 -7 3 -15 -4 -8 -1 -22 6 -30 7 -8 10 -15 7 -15 -3 0 2 -26 10
-58 13 -51 19 -75 26 -107 2 -5 5 -14 9 -20 5 -9 21 -68 24 -90 0 -5 4 -17 7
-25 15 -38 49 -144 51 -156 1 -7 5 -17 9 -20 4 -4 7 -18 7 -31 0 -13 5 -23 10
-23 6 0 10 -9 10 -20 0 -11 5 -20 11 -20 5 0 8 -3 6 -7 -3 -5 0 -19 6 -33 12
-29 18 -50 19 -67 1 -7 5 -13 10 -13 4 0 8 -4 8 -9 0 -5 5 -22 12 -38 6 -15
11 -31 10 -35 -1 -5 3 -8 10 -8 6 0 8 -3 5 -6 -3 -4 -1 -16 5 -28 7 -11 13
-23 13 -26 3 -11 24 -58 66 -145 23 -49 42 -93 41 -97 -1 -5 3 -8 9 -8 5 0 7
-4 4 -10 -3 -5 -2 -10 3 -10 9 0 25 -37 23 -52 -1 -5 3 -8 9 -8 5 0 10 -9 10
-20 0 -11 4 -20 8 -20 4 0 20 -24 35 -52 15 -29 41 -75 58 -103 16 -27 32 -58
36 -67 3 -10 10 -18 15 -18 5 0 6 -5 3 -10 -3 -6 -2 -10 3 -10 4 0 16 -15 25
-33 18 -35 39 -69 47 -77 14 -14 70 -102 70 -110 0 -6 5 -10 10 -10 6 0 10 -5
10 -11 0 -7 9 -20 21 -30 11 -9 20 -20 19 -23 0 -6 71 -106 94 -133 6 -6 33
-41 60 -77 27 -36 53 -66 57 -66 5 0 9 -5 9 -10 0 -11 34 -52 87 -107 18 -19
33 -36 33 -39 0 -14 357 -374 371 -374 5 0 9 -7 9 -17 0 -9 3 -14 6 -10 3 3
23 -9 43 -27 20 -19 49 -44 65 -57 15 -13 37 -34 49 -46 11 -13 24 -23 28 -23
5 0 19 -10 31 -23 13 -12 39 -33 58 -47 50 -37 94 -73 102 -85 4 -5 8 -6 8 -2
0 4 12 -4 27 -18 15 -14 31 -25 35 -25 3 0 13 -6 20 -13 7 -6 33 -25 58 -42
25 -16 47 -33 48 -37 2 -5 10 -8 18 -8 8 0 14 -4 14 -10 0 -5 7 -10 15 -10 8
0 15 -4 15 -10 0 -5 5 -10 11 -10 6 0 30 -14 54 -30 24 -17 48 -30 54 -30 6 0
11 -4 11 -10 0 -5 7 -10 15 -10 8 0 15 -4 15 -10 0 -5 5 -10 10 -10 6 0 29
-12 53 -27 77 -49 366 -197 502 -258 28 -12 70 -31 95 -43 39 -17 85 -34 100
-37 3 0 15 -6 28 -13 12 -7 22 -9 22 -5 0 4 4 2 8 -4 4 -7 17 -14 27 -16 11
-2 37 -11 59 -20 21 -9 47 -17 58 -17 12 0 17 -4 12 -12 -4 -6 -3 -8 4 -4 6 3
28 0 49 -8 21 -8 47 -16 58 -18 11 -2 22 -5 25 -9 6 -7 150 -50 170 -51 8 0
21 -5 28 -11 6 -5 12 -7 12 -4 0 4 18 0 40 -8 22 -8 40 -13 40 -11 0 2 20 -2
45 -10 25 -7 45 -10 45 -7 0 3 6 0 13 -6 8 -6 17 -8 20 -4 4 3 13 1 20 -5 8
-7 16 -10 18 -7 4 3 39 -3 114 -22 11 -2 34 -6 50 -8 17 -1 30 -4 30 -5 0 -1
11 -4 25 -6 78 -10 95 -13 95 -15 0 -1 16 -3 35 -5 19 -2 49 -6 65 -8 38 -6
117 -15 175 -21 156 -15 255 -19 500 -19 281 0 392 5 595 29 33 4 76 9 95 11
35 4 75 11 75 14 0 1 20 3 45 6 45 4 85 11 85 14 0 1 14 3 30 5 17 2 60 10 98
19 37 9 71 15 75 14 4 -1 27 4 52 12 25 7 54 14 65 16 11 1 22 3 25 5 3 1 10
3 15 4 6 2 12 4 15 5 3 1 12 3 20 5 137 35 180 49 180 57 0 5 4 7 9 4 8 -5
207 56 277 85 16 7 31 13 34 13 21 4 186 72 191 79 3 5 9 8 13 8 10 -1 38 10
138 55 54 24 102 44 107 44 5 0 11 3 13 8 2 4 51 32 111 61 59 30 107 59 107
63 0 4 7 8 15 8 9 0 33 11 55 25 22 14 44 25 50 25 5 0 10 5 10 11 0 5 5 7 10
4 6 -3 10 -1 10 4 0 6 4 11 9 11 5 0 35 17 67 37 31 21 59 37 61 36 1 -2 12 5
22 15 38 34 49 41 55 35 3 -4 6 -1 6 5 0 7 7 12 15 12 8 0 15 5 15 10 0 6 4
10 10 10 5 0 18 7 27 15 19 15 154 113 181 130 9 6 26 19 38 30 13 11 36 30
51 42 95 74 179 145 257 217 48 44 92 83 97 84 5 2 7 8 3 13 -3 5 0 9 6 9 14
0 120 107 120 120 0 6 3 9 8 8 4 -2 22 12 40 30 18 17 31 32 29 32 -2 0 21 26
52 59 31 32 70 75 86 95 17 20 43 51 58 69 16 18 38 45 50 60 12 15 30 38 41
50 10 12 26 33 34 47 9 14 22 29 29 33 7 4 13 12 13 17 0 9 19 36 48 65 6 8
12 18 12 24 0 6 5 11 10 11 6 0 10 5 10 10 0 6 9 20 20 32 11 12 20 27 20 34
0 6 7 14 15 18 8 3 15 12 15 19 0 8 9 22 20 32 11 10 20 24 20 32 0 7 4 13 9
13 5 0 12 11 15 25 4 14 11 25 16 25 6 0 10 7 10 15 0 8 5 15 12 15 6 0 9 3 5
6 -3 3 -1 11 4 18 27 32 67 101 63 108 -3 4 0 8 5 8 6 0 11 7 11 15 0 8 3 15
8 15 4 0 12 10 18 23 36 76 100 193 107 198 5 3 8 8 8 10 -3 10 33 89 41 89 4
0 8 7 8 15 0 9 13 42 30 74 16 32 26 61 23 65 -4 3 -1 6 5 6 7 0 12 5 12 10 0
6 7 26 15 46 8 19 14 36 15 39 0 3 16 41 35 86 19 44 33 85 29 90 -3 5 0 9 6
9 6 0 9 4 6 9 -4 5 -3 11 1 13 9 3 82 210 87 243 2 11 6 27 9 35 3 8 11 33 17
55 6 22 14 47 17 55 3 8 8 24 10 34 2 10 12 53 23 95 10 42 21 90 24 106 2 17
5 30 6 30 2 0 4 13 14 63 3 17 9 47 13 65 3 17 7 42 7 55 1 12 4 22 7 22 3 0
6 21 8 47 1 26 5 51 8 57 4 6 8 24 9 41 1 16 5 48 9 70 10 63 15 111 31 310
10 121 10 605 1 730 -11 146 -23 260 -27 260 -1 0 -3 26 -5 57 -2 32 -6 62
-10 68 -3 5 -8 31 -11 57 -5 50 -11 88 -14 88 -1 0 -3 11 -5 25 -1 14 -8 52
-15 85 -7 33 -14 69 -16 80 -4 28 -73 307 -81 325 -3 8 -7 18 -8 23 -2 4 -3 8
-5 10 -1 1 -3 9 -5 18 -1 9 -11 43 -21 75 -22 73 -19 66 -27 87 -12 29 -18 52
-16 52 1 0 -3 11 -10 23 -7 13 -15 36 -17 50 -3 15 -9 31 -13 37 -4 5 -13 24
-19 40 -6 17 -17 44 -23 60 -7 17 -13 32 -14 35 -5 15 -18 47 -26 65 -39 91
-58 136 -56 138 1 1 -9 19 -21 40 -13 20 -20 37 -15 37 4 0 4 4 -2 8 -15 10
-35 49 -35 67 0 8 -3 15 -8 15 -4 0 -20 28 -36 63 -16 34 -38 74 -48 90 -11
15 -16 27 -11 27 4 0 3 4 -2 8 -6 4 -17 21 -25 37 -8 17 -17 32 -20 35 -10 10
-41 65 -47 83 -3 9 -9 17 -14 17 -5 0 -9 5 -9 11 0 5 -21 42 -47 82 -27 40
-52 79 -58 88 -32 52 -119 175 -126 177 -5 2 -9 8 -9 14 0 9 -55 82 -87 116
-7 7 -13 16 -13 20 0 4 -16 23 -35 43 -19 20 -32 39 -29 42 3 3 -4 8 -15 12
-12 3 -19 10 -17 14 3 4 -21 35 -53 69 -32 34 -57 62 -55 62 2 0 -22 28 -53
62 -75 79 -283 288 -287 288 -2 0 -24 19 -48 43 -25 23 -68 62 -98 87 -29 25
-60 52 -70 60 -9 8 -32 26 -50 40 -18 14 -38 30 -44 35 -6 6 -31 26 -56 45
-25 19 -46 38 -48 42 -2 5 -10 8 -18 8 -8 0 -17 7 -20 15 -4 8 -10 15 -16 15
-11 0 -81 51 -86 63 -2 4 -9 7 -16 7 -7 0 -21 9 -31 20 -10 11 -23 20 -30 20
-7 0 -20 9 -30 20 -10 11 -23 20 -28 20 -6 0 -25 11 -43 25 -18 14 -37 25 -43
25 -6 0 -11 5 -11 11 0 5 -4 7 -10 4 -5 -3 -10 -2 -10 3 0 4 -17 17 -37 28
-56 30 -87 48 -93 54 -6 6 -104 59 -147 79 -18 8 -33 19 -33 23 0 4 -8 8 -18
8 -10 0 -24 6 -30 13 -7 6 -16 12 -20 12 -4 1 -52 22 -107 49 -121 58 -136 65
-155 68 -8 2 -18 7 -22 12 -3 5 -13 11 -21 12 -8 1 -30 9 -48 17 -19 9 -41 17
-49 19 -8 2 -17 6 -20 9 -4 4 -182 71 -200 75 -3 0 -17 6 -33 12 -27 12 -70
23 -94 24 -7 1 -13 4 -13 8 0 7 -112 37 -119 31 -2 -1 -7 2 -10 7 -3 6 -20 12
-37 15 -17 3 -40 9 -50 15 -11 5 -25 7 -32 5 -7 -3 -19 1 -27 7 -8 7 -22 10
-30 6 -8 -3 -15 -1 -15 5 0 5 -6 9 -12 8 -7 -1 -25 1 -39 5 -14 4 -32 8 -40 9
-8 2 -20 7 -28 11 -11 7 -12 6 -6 -5 7 -11 6 -12 -6 -3 -19 15 -295 68 -356
68 -18 0 -33 4 -33 7 0 4 -8 6 -17 4 -10 -1 -26 2 -37 7 -14 8 -17 7 -11 -3 6
-8 4 -10 -6 -4 -7 5 -27 10 -44 11 -16 1 -30 3 -30 4 0 1 -27 3 -60 5 -33 2
-60 4 -60 5 0 9 -719 23 -728 14z m175 -48 c14 9 197 11 192 3 -2 -3 -25 -5
-51 -5 -26 1 -58 -2 -70 -6 -13 -4 -23 -3 -23 2 0 5 -10 6 -22 4 -38 -9 -158
-10 -158 -2 0 5 23 7 50 5 29 -3 53 0 57 6 5 8 8 7 11 -1 2 -7 9 -9 14 -6z
m228 -7 c0 -6 -4 -7 -10 -4 -5 3 -10 11 -10 16 0 6 5 7 10 4 6 -3 10 -11 10
-16z m-396 -1 c-3 -4 -9 -8 -15 -8 -5 0 -9 4 -9 8 0 5 7 9 15 9 8 0 12 -4 9
-9z m486 6 c0 -8 -19 -13 -24 -6 -3 5 1 9 9 9 8 0 15 -2 15 -3z m-620 -18 c-7
-7 -13 -7 -20 0 -6 6 -3 10 10 10 13 0 16 -4 10 -10z m70 4 c0 -5 -2 -10 -4
-10 -3 0 -8 5 -11 10 -3 6 -1 10 4 10 6 0 11 -4 11 -10z m1255 -60 c3 -6 -1
-7 -9 -4 -18 7 -21 14 -7 14 6 0 13 -4 16 -10z m500 -120 c-3 -6 -21 -17 -38
-26 -36 -19 -31 -9 10 17 34 21 36 22 28 9z m-155 -94 c0 -2 -8 -10 -17 -17
-16 -13 -17 -12 -4 4 13 16 21 21 21 13z m-250 -216 c-8 -5 -19 -10 -25 -10
-5 0 -3 5 5 10 8 5 20 10 25 10 6 0 3 -5 -5 -10z m-120 -75 c-19 -14 -36 -25
-39 -25 -10 0 53 49 63 50 6 0 -5 -11 -24 -25z m-70 -50 c-25 -26 -40 -32 -40
-14 0 5 4 8 9 5 4 -3 16 3 26 14 10 11 20 20 23 20 3 0 -5 -11 -18 -25z m-50
-30 c0 -7 -122 -95 -132 -95 -4 0 0 8 10 19 9 10 19 18 22 18 14 -2 69 41 62
48 -4 5 -2 5 5 1 6 -3 14 -2 18 4 6 10 15 13 15 5z m1870 -65 c0 -5 -2 -10 -4
-10 -3 0 -8 5 -11 10 -3 6 -1 10 4 10 6 0 11 -4 11 -10z m35 -28 c-3 -3 -11 0
-18 7 -9 10 -8 11 6 5 10 -3 15 -9 12 -12z m-2054 -16 c-1 -3 -3 -6 -6 -6 -3
0 -12 -5 -21 -12 -8 -7 -20 -17 -27 -23 -7 -5 -26 -21 -41 -35 -16 -14 -27
-20 -25 -14 4 13 112 103 117 99 2 -2 3 -6 3 -9z m2137 -41 c-3 -3 -9 2 -12
12 -6 14 -5 15 5 6 7 -7 10 -15 7 -18z m72 -41 c0 -2 -9 0 -20 6 -11 6 -20 13
-20 16 0 2 9 0 20 -6 11 -6 20 -13 20 -16z m-5648 -17 c-12 -13 -22 -30 -22
-38 0 -12 -2 -12 -10 1 -7 11 -2 21 18 37 35 29 41 29 14 0z m5683 -5 c-3 -3
-11 0 -18 7 -9 10 -8 11 6 5 10 -3 15 -9 12 -12z m-2395 -17 c-13 -15 -35 -11
-24 6 3 5 10 7 15 4 5 -4 9 -1 9 6 0 7 3 9 6 6 4 -4 1 -13 -6 -22z m-40 -30
c-7 -8 -20 -15 -29 -15 -11 0 -8 5 9 14 33 19 35 19 20 1z m2544 -34 c-2 -3
-12 3 -22 13 -16 17 -16 18 5 5 12 -7 20 -15 17 -18z m-5780 -67 c3 -8 2 -12
-4 -9 -6 3 -10 10 -10 16 0 14 7 11 14 -7z m26 -45 c0 -6 -4 -7 -10 -4 -5 3
-10 11 -10 16 0 6 5 7 10 4 6 -3 10 -11 10 -16z m-355 -29 c-3 -5 -12 -10 -18
-10 -7 0 -6 4 3 10 19 12 23 12 15 0z m371 -16 c1 -9 0 -13 -4 -10 -3 4 -7 14
-8 22 -1 9 0 13 4 10 3 -4 7 -14 8 -22z m2973 2 c-3 -3 -16 -2 -29 1 -22 6
-22 7 -4 14 18 6 43 -5 33 -15z m-3389 -19 c0 -2 -10 -12 -22 -23 l-23 -19 19
23 c18 21 26 27 26 19z m478 -32 c-3 -3 -9 2 -12 12 -6 14 -5 15 5 6 7 -7 10
-15 7 -18z m2682 -5 c0 -5 -2 -10 -4 -10 -3 0 -8 5 -11 10 -3 6 -1 10 4 10 6
0 11 -4 11 -10z m239 -24 c-3 -3 -11 5 -18 17 -13 21 -12 21 5 5 10 -10 16
-20 13 -22z m3052 7 c13 -17 13 -17 -6 -3 -11 8 -22 16 -24 17 -2 2 0 3 6 3 6
0 17 -8 24 -17z m-5951 -2 c0 -6 -4 -12 -8 -15 -5 -3 -9 1 -9 9 0 8 4 15 9 15
4 0 8 -4 8 -9z m2930 -36 c14 -19 14 -19 -2 -6 -10 7 -18 18 -18 24 0 6 1 8 3
6 1 -2 9 -13 17 -24z m-3550 -9 c0 -2 -8 -10 -17 -17 -16 -13 -17 -12 -4 4 13
16 21 21 21 13z m645 -17 c7 -7 2 -7 -15 -1 -14 5 -31 7 -37 5 -7 -3 -13 0
-13 6 0 12 51 4 65 -10z m-105 -2 c0 -2 -10 -12 -22 -23 l-23 -19 19 23 c18
21 26 27 26 19z m3054 -33 c3 -8 2 -12 -4 -9 -6 3 -10 10 -10 16 0 14 7 11 14
-7z m-3654 2 c0 -2 -8 -10 -17 -17 -16 -13 -17 -12 -4 4 13 16 21 21 21 13z
m541 -19 c-10 -9 -11 -8 -5 6 3 10 9 15 12 12 3 -3 0 -11 -7 -18z m1913 5 c3
-5 -1 -9 -9 -9 -8 0 -12 4 -9 9 3 4 7 8 9 8 2 0 6 -4 9 -8z m-1934 -5 c0 -2
-15 -13 -32 -26 l-33 -22 28 25 c26 24 37 31 37 23z m-550 -21 c0 -2 -7 -7
-16 -10 -8 -3 -12 -2 -9 4 6 10 25 14 25 6z m-54 -44 c-17 -16 -18 -16 -5 5 7
12 15 20 18 17 3 -2 -3 -12 -13 -22z m2354 21 c0 -5 -12 -9 -27 -10 -19 -1
-22 1 -12 8 17 11 39 12 39 2z m-84 -25 c-10 -6 -22 -6 -26 -2 -5 5 3 10 18
11 22 1 24 0 8 -9z m-1786 -12 c0 -3 -4 -8 -10 -11 -5 -3 -10 -1 -10 4 0 6 5
11 10 11 6 0 10 -2 10 -4z m700 -30 c-7 -7 -13 -7 -20 0 -6 6 -3 10 10 10 13
0 16 -4 10 -10z m40 -16 c0 -5 -2 -10 -4 -10 -3 0 -8 5 -11 10 -3 6 -1 10 4
10 6 0 11 -4 11 -10z m874 2 c3 -5 -1 -9 -9 -9 -8 0 -12 4 -9 9 3 4 7 8 9 8 2
0 6 -4 9 -8z m1740 -8 c3 -8 2 -12 -4 -9 -6 3 -10 10 -10 16 0 14 7 11 14 -7z
m-3941 -27 c-15 -19 -30 -32 -32 -30 -5 3 49 63 57 63 2 0 -9 -15 -25 -33z
m1367 13 c0 -5 -7 -7 -15 -4 -8 4 -15 8 -15 10 0 2 7 4 15 4 8 0 15 -4 15 -10z
m51 -27 c13 -15 12 -15 -11 -3 -34 17 -36 20 -18 20 9 0 22 -7 29 -17z m689
13 c0 -2 -7 -7 -16 -10 -8 -3 -12 -2 -9 4 6 10 25 14 25 6z m-624 -54 c1 -7 0
-8 -3 -2 -2 5 -9 8 -14 4 -5 -3 -9 0 -9 6 0 15 23 7 26 -8z m389 8 c-3 -5 -12
-10 -18 -10 -7 0 -6 4 3 10 19 12 23 12 15 0z m2130 -20 c3 -5 1 -10 -4 -10
-6 0 -11 5 -11 10 0 6 2 10 4 10 3 0 8 -4 11 -10z m-2475 -20 c6 -11 9 -20 8
-20 -2 0 -11 9 -21 20 -9 11 -13 20 -7 20 5 0 14 -9 20 -20z m-1260 7 c0 -2
-10 -12 -22 -23 l-23 -19 19 23 c18 21 26 27 26 19z m-361 -20 c-2 -1 -15 -11
-29 -22 l-25 -20 19 23 c11 12 24 22 29 22 6 0 8 -1 6 -3z m1664 -21 c4 -10 1
-13 -9 -9 -7 3 -14 9 -14 14 0 14 17 10 23 -5z m77 -12 c0 -8 -19 -13 -24 -6
-3 5 1 9 9 9 8 0 15 -2 15 -3z m-1802 -38 c-7 -8 -15 -12 -17 -11 -5 6 10 25
20 25 5 0 4 -6 -3 -14z m302 4 c0 -5 -5 -10 -11 -10 -5 0 -7 5 -4 10 3 6 8 10
11 10 2 0 4 -4 4 -10z m1560 6 c0 -2 -7 -7 -16 -10 -8 -3 -12 -2 -9 4 6 10 25
14 25 6z m-42 -40 c-1 -14 -6 -22 -10 -20 -12 7 -10 44 2 44 5 0 9 -11 8 -24z
m5672 -28 c0 -5 -5 -6 -11 -2 -8 4 -9 -1 -4 -16 5 -15 4 -20 -4 -16 -6 4 -11
20 -11 35 0 15 -6 33 -12 41 -7 8 -1 4 15 -9 15 -14 27 -28 27 -33z m-7550 2
c0 -5 -5 -10 -11 -10 -5 0 -7 5 -4 10 3 6 8 10 11 10 2 0 4 -4 4 -10z m260 -5
c0 -2 -10 -9 -22 -15 -22 -11 -22 -10 -4 4 21 17 26 19 26 11z m-325 -63 l-28
-27 24 31 c13 17 26 30 28 27 3 -2 -8 -16 -24 -31z m1902 16 c-3 -8 -6 -5 -6
6 -1 11 2 17 5 13 3 -3 4 -12 1 -19z m5718 -28 c3 -5 1 -10 -4 -10 -6 0 -11 5
-11 10 0 6 2 10 4 10 3 0 8 -4 11 -10z m-7435 -14 c0 -3 -4 -8 -10 -11 -5 -3
-10 -1 -10 4 0 6 5 11 10 11 6 0 10 -2 10 -4z m1711 -43 c-12 -20 -14 -14 -5
12 4 9 9 14 11 11 3 -2 0 -13 -6 -23z m-4 -45 c-3 -8 -6 -5 -6 6 -1 11 2 17 5
13 3 -3 4 -12 1 -19z m0 -40 c-3 -8 -6 -5 -6 6 -1 11 2 17 5 13 3 -3 4 -12 1
-19z m2691 -3 c-3 -3 -9 2 -12 12 -6 14 -5 15 5 6 7 -7 10 -15 7 -18z m-4753
-55 c-3 -5 2 -10 12 -11 15 0 14 -2 -4 -11 -13 -6 -23 -15 -23 -20 0 -5 -4 -6
-10 -3 -5 3 -10 1 -10 -6 0 -7 -3 -10 -6 -6 -6 6 33 67 42 67 3 0 2 -4 -1 -10z
m8070 -60 c3 -6 -1 -7 -9 -4 -18 7 -21 14 -7 14 6 0 13 -4 16 -10z m20 -30 c3
-6 -1 -7 -9 -4 -18 7 -21 14 -7 14 6 0 13 -4 16 -10z m-6055 -30 c0 -5 -2 -10
-4 -10 -3 0 -8 5 -11 10 -3 6 -1 10 4 10 6 0 11 -4 11 -10z m6084 -9 c14 -15
15 -21 4 -27 -7 -4 -10 -3 -5 1 4 5 0 17 -10 27 -9 10 -14 18 -11 18 3 0 13
-9 22 -19z m-8224 -25 c0 -3 -4 -8 -10 -11 -5 -3 -10 -1 -10 4 0 6 5 11 10 11
6 0 10 -2 10 -4z m5028 -36 c7 -11 11 -20 9 -20 -2 0 -12 9 -22 20 -10 11 -14
20 -9 20 5 0 15 -9 22 -20z m3242 -5 c7 -9 8 -15 2 -15 -5 0 -12 7 -16 15 -3
8 -4 15 -2 15 2 0 9 -7 16 -15z m-296 -60 c3 -8 1 -15 -4 -15 -6 0 -10 7 -10
15 0 8 2 15 4 15 2 0 6 -7 10 -15z m351 -24 c-6 -5 -25 10 -25 20 0 5 6 4 14
-3 8 -7 12 -15 11 -17z m-3241 3 c5 -14 4 -15 -9 -4 -17 14 -19 20 -6 20 5 0
12 -7 15 -16z m3276 -59 c0 -5 -5 -3 -10 5 -5 8 -10 20 -10 25 0 6 5 3 10 -5
5 -8 10 -19 10 -25z m-8547 -80 c-3 -9 -8 -14 -10 -11 -3 3 -2 9 2 15 9 16 15
13 8 -4z m2288 -68 c-10 -9 -11 -8 -5 6 3 10 9 15 12 12 3 -3 0 -11 -7 -18z
m3118 -81 c-2 -2 -13 8 -23 22 l-19 27 24 -22 c12 -12 21 -24 18 -27z m18 -12
c-4 -4 7 -24 23 -45 21 -26 26 -39 18 -42 -7 -3 -4 -6 7 -6 15 -1 16 -4 7 -13
-14 -14 -21 -8 -27 22 -3 13 -10 27 -17 32 -7 4 -9 8 -4 8 5 0 2 8 -7 18 -15
16 -14 32 1 32 3 0 2 -3 -1 -6z m2803 -32 c0 -5 -7 -9 -15 -9 -8 0 -12 4 -9 9
3 4 9 8 15 8 5 0 9 -4 9 -8z m90 -55 c0 -7 -4 -6 -10 3 -5 8 -10 11 -10 5 -1
-13 -24 26 -26 45 -2 8 8 3 22 -13 13 -15 24 -33 24 -40z m408 38 c-3 -3 -9 2
-12 12 -6 14 -5 15 5 6 7 -7 10 -15 7 -18z m-468 -56 l25 -21 -28 17 c-26 15
-30 15 -53 0 -14 -9 -28 -23 -31 -31 -3 -8 -11 -14 -19 -14 -8 0 -14 -8 -15
-17 0 -11 -3 -13 -6 -5 -7 17 67 88 97 91 3 0 16 -9 30 -20z m115 -28 c-6 -5
-25 10 -25 20 0 5 6 4 14 -3 8 -7 12 -15 11 -17z m395 9 c0 -5 -2 -10 -4 -10
-3 0 -8 5 -11 10 -3 6 -1 10 4 10 6 0 11 -4 11 -10z m-436 -36 c3 -8 2 -12 -4
-9 -6 3 -10 10 -10 16 0 14 7 11 14 -7z m-2868 -9 c-30 -23 -98 -80 -129 -109
-41 -38 -46 -32 -6 7 42 41 139 117 147 117 4 0 -2 -7 -12 -15z m2634 -39 c0
-2 -8 -10 -17 -17 -16 -13 -17 -12 -4 4 13 16 21 21 21 13z m-1970 -10 c0 -3
-4 -8 -10 -11 -5 -3 -10 -1 -10 4 0 6 5 11 10 11 6 0 10 -2 10 -4z m107 -32
c-3 -3 -12 -4 -19 -1 -8 3 -5 6 6 6 11 1 17 -2 13 -5z m63 -14 c8 -5 11 -10 5
-10 -5 0 -17 5 -25 10 -8 5 -10 10 -5 10 6 0 17 -5 25 -10z m130 -40 c0 -5 -2
-10 -4 -10 -3 0 -8 5 -11 10 -3 6 -1 10 4 10 6 0 11 -4 11 -10z m-1142 -24
c-7 -8 -15 -12 -17 -11 -5 6 10 25 20 25 5 0 4 -6 -3 -14z m2722 10 c0 -3 -4
-8 -10 -11 -5 -3 -10 -1 -10 4 0 6 5 11 10 11 6 0 10 -2 10 -4z m-2760 -41
c-7 -8 -17 -15 -23 -15 -6 0 -2 7 9 15 25 19 30 19 14 0z m1435 -33 c-3 -3
-11 0 -18 7 -9 10 -8 11 6 5 10 -3 15 -9 12 -12z m-1490 -32 c-3 -5 -12 -10
-18 -10 -7 0 -6 4 3 10 19 12 23 12 15 0z m1600 -8 c-3 -3 -11 0 -18 7 -9 10
-8 11 6 5 10 -3 15 -9 12 -12z m1041 -10 c-17 -16 -18 -16 -5 5 7 12 15 20 18
17 3 -2 -3 -12 -13 -22z m-950 -23 c3 -6 -5 -4 -18 5 -14 9 -28 13 -33 9 -4
-5 -5 -2 -1 5 8 13 39 2 52 -19z m912 -18 c-7 -12 -16 -21 -21 -21 -4 0 0 11
10 24 22 29 30 27 11 -3z m-2658 5 c0 -2 -8 -10 -17 -17 -16 -13 -17 -12 -4 4
13 16 21 21 21 13z m-59 -59 c-10 -9 -11 -8 -5 6 3 10 9 15 12 12 3 -3 0 -11
-7 -18z m1954 12 c11 -16 1 -19 -13 -3 -7 8 -8 14 -3 14 5 0 13 -5 16 -11z
m-4820 -18 c3 -5 2 -12 -3 -15 -5 -3 -9 1 -9 9 0 17 3 19 12 6z m2826 -34
c-10 -9 -11 -8 -5 6 3 10 9 15 12 12 3 -3 0 -11 -7 -18z m3949 -12 c0 -8 -6
-17 -12 -21 -7 -4 -10 -4 -6 1 4 4 3 16 -3 26 -7 15 -6 17 6 13 8 -4 15 -12
15 -19z m-1287 0 c-3 -9 -8 -14 -10 -11 -3 3 -2 9 2 15 9 16 15 13 8 -4z m-38
-35 c-3 -5 -12 -10 -18 -10 -7 0 -6 4 3 10 19 12 23 12 15 0z m36 -33 c-10 -9
-11 -8 -5 6 3 10 9 15 12 12 3 -3 0 -11 -7 -18z m-52 -50 c-24 -18 -51 -75
-39 -82 13 -8 13 -25 0 -25 -5 0 -9 3 -9 8 1 4 0 9 -1 12 -9 25 -4 44 20 70
15 16 32 30 37 30 4 0 1 -6 -8 -13z m-89 -38 c0 -6 -4 -7 -10 -4 -5 3 -10 11
-10 16 0 6 5 7 10 4 6 -3 10 -11 10 -16z m-5403 -18 c0 -11 -5 -18 -9 -15 -4
3 -5 11 -1 19 7 21 12 19 10 -4z m2673 -25 c0 -2 -8 -10 -17 -17 -16 -13 -17
-12 -4 4 13 16 21 21 21 13z m-2680 -31 c0 -14 -4 -25 -9 -25 -4 0 -6 11 -3
25 2 14 6 25 8 25 2 0 4 -11 4 -25z m5476 -30 c1 -8 -2 -13 -7 -9 -5 3 -9 12
-9 21 0 19 13 9 16 -12z m-5439 -7 c-3 -8 -6 -5 -6 6 -1 11 2 17 5 13 3 -3 4
-12 1 -19z m-37 -2 c0 -2 -12 -12 -27 -21 l-28 -18 19 21 c17 20 36 29 36 18z
m75 -6 c3 -6 -1 -7 -9 -4 -18 7 -21 14 -7 14 6 0 13 -4 16 -10z m-42 -53 c-3
-4 -8 -6 -11 -3 -3 3 -11 1 -19 -6 -11 -8 -12 -7 -7 5 3 9 14 15 24 14 10 -1
16 -5 13 -10z m-2688 -26 c2 -11 7 -27 11 -34 5 -9 4 -9 -6 0 -11 10 -16 9
-27 -5 -13 -15 -13 -15 -4 5 6 12 11 32 11 44 0 26 9 21 15 -10z m5198 9 c-10
-11 -19 -20 -21 -20 -1 0 2 9 8 20 6 11 15 20 20 20 6 0 2 -9 -7 -20z m-2571
-7 c-7 -3 -26 -16 -42 -30 -17 -14 -30 -21 -30 -16 1 11 74 63 80 56 3 -3 -1
-8 -8 -10z m7019 -50 c13 -16 12 -17 -3 -4 -10 7 -18 15 -18 17 0 8 8 3 21
-13z m-7101 -7 c0 -2 -8 -10 -17 -17 -16 -13 -17 -12 -4 4 13 16 21 21 21 13z
m560 -2 c0 -8 -19 -13 -24 -6 -3 5 1 9 9 9 8 0 15 -2 15 -3z m-640 -69 c-7 -8
-17 -15 -23 -15 -6 0 -2 7 9 15 25 19 30 19 14 0z m2590 -29 c0 -2 -7 -7 -16
-10 -8 -3 -12 -2 -9 4 6 10 25 14 25 6z m-30 -31 c0 -2 -10 -9 -22 -15 -22
-11 -22 -10 -4 4 21 17 26 19 26 11z m-1310 -55 c0 -5 -2 -10 -4 -10 -3 0 -8
5 -11 10 -3 6 -1 10 4 10 6 0 11 -4 11 -10z m-1407 -15 c-3 -9 -8 -14 -10 -11
-3 3 -2 9 2 15 9 16 15 13 8 -4z m1462 -5 c3 -5 1 -10 -4 -10 -6 0 -11 5 -11
10 0 6 2 10 4 10 3 0 8 -4 11 -10z m40 -10 c3 -6 -1 -7 -9 -4 -18 7 -21 14 -7
14 6 0 13 -4 16 -10z m49 -17 c4 -11 1 -11 -14 -3 -24 13 -25 17 -5 17 8 0 16
-6 19 -14z m-1591 -8 c-3 -9 -8 -14 -10 -11 -3 3 -2 9 2 15 9 16 15 13 8 -4z
m1648 -10 c19 -8 27 -14 19 -14 -14 0 -72 28 -59 29 4 0 22 -7 40 -15z m5804
5 c3 -5 1 -10 -4 -10 -6 0 -11 5 -11 10 0 6 2 10 4 10 3 0 8 -4 11 -10z
m-5725 -34 c0 -2 -9 -2 -20 1 -11 3 -20 9 -20 15 0 5 9 4 20 -2 11 -6 20 -12
20 -14z m900 10 c0 -2 -7 -7 -16 -10 -8 -3 -12 -2 -9 4 6 10 25 14 25 6z
m-2687 -21 c-3 -9 -8 -14 -10 -11 -3 3 -2 9 2 15 9 16 15 13 8 -4z m1821 6 c3
-5 21 -12 41 -15 19 -4 37 -11 40 -15 7 -12 -64 9 -90 26 -11 7 -14 13 -8 13
7 0 14 -4 17 -9z m846 -15 c0 -2 -7 -7 -16 -10 -8 -3 -12 -2 -9 4 6 10 25 14
25 6z m-4782 -31 c-3 -3 -9 2 -12 12 -6 14 -5 15 5 6 7 -7 10 -15 7 -18z
m4047 5 c3 -5 1 -10 -4 -10 -6 0 -11 5 -11 10 0 6 2 10 4 10 3 0 8 -4 11 -10z
m686 -23 c-10 -9 -11 -8 -5 6 3 10 9 15 12 12 3 -3 0 -11 -7 -18z m-2671 9 c0
-2 -8 -10 -17 -17 -16 -13 -17 -12 -4 4 13 16 21 21 21 13z m2055 -6 c19 -8
19 -9 -2 -9 -12 -1 -25 4 -28 9 -7 12 2 12 30 0z m-2096 -43 c-29 -19 -95 -87
-91 -93 4 -4 1 -4 -6 0 -9 5 3 22 40 56 29 27 55 47 57 44 2 -2 2 -5 0 -7z
m2196 -5 c-3 -3 -11 0 -18 7 -9 10 -8 11 6 5 10 -3 15 -9 12 -12z m469 -12
c-10 -16 -20 -28 -22 -26 -4 5 28 56 35 56 2 0 -4 -13 -13 -30z m-94 -30 c-8
-5 -10 -10 -5 -10 6 0 2 -5 -7 -11 -10 -5 -18 -16 -18 -24 0 -8 -5 -17 -12
-21 -6 -4 -8 -3 -4 4 3 6 -2 15 -11 21 -17 10 -17 10 0 11 9 0 25 9 34 20 10
11 22 20 28 20 5 0 3 -5 -5 -10z m5085 -19 c3 -5 2 -12 -3 -15 -5 -3 -9 1 -9
9 0 17 3 19 12 6z m-1441 -37 c3 -8 2 -12 -4 -9 -6 3 -10 10 -10 16 0 14 7 11
14 -7z m-6324 2 c0 -3 -4 -8 -10 -11 -5 -3 -10 -1 -10 4 0 6 5 11 10 11 6 0
10 -2 10 -4z m2589 -21 c16 -8 31 -11 35 -8 3 4 6 -1 6 -10 0 -9 -4 -19 -10
-22 -5 -3 -10 -1 -10 5 0 5 -15 19 -32 30 -38 23 -30 27 11 5z m-2650 -42
c-13 -16 -25 -30 -26 -32 -2 -2 -3 0 -3 5 0 12 37 54 47 54 4 0 -4 -12 -18
-27z m-53 -59 c-10 -14 -20 -23 -23 -20 -3 3 2 12 11 21 9 9 16 21 16 27 0 6
3 8 6 5 4 -4 -1 -18 -10 -33z m-42 -48 c-3 -9 -12 -16 -20 -16 -11 0 -10 4 4
18 20 22 25 21 16 -2z m6530 -2 c3 -8 2 -12 -4 -9 -6 3 -10 10 -10 16 0 14 7
11 14 -7z m1431 -24 c3 -5 1 -10 -4 -10 -6 0 -11 5 -11 10 0 6 2 10 4 10 3 0
8 -4 11 -10z m-8021 -35 c-15 -20 -29 -34 -31 -31 -5 4 46 66 54 66 2 0 -8
-16 -23 -35z m6626 -39 c0 -3 -4 -8 -10 -11 -5 -3 -10 -1 -10 4 0 6 5 11 10
11 6 0 10 -2 10 -4z m-6660 -12 c0 -8 -19 -13 -24 -6 -3 5 1 9 9 9 8 0 15 -2
15 -3z m-125 -134 c-3 -5 -12 -10 -18 -10 -7 0 -6 4 3 10 19 12 23 12 15 0z
m-1352 -100 c3 -11 1 -18 -4 -14 -5 3 -9 12 -9 20 0 20 7 17 13 -6z m11 -45
c3 -8 1 -15 -4 -15 -6 0 -10 7 -10 15 0 8 2 15 4 15 2 0 6 -7 10 -15z m8182
-11 c1 -9 0 -13 -4 -10 -3 4 -7 14 -8 22 -1 9 0 13 4 10 3 -4 7 -14 8 -22z
m-7023 1 c-3 -9 -8 -14 -10 -11 -3 3 -2 9 2 15 9 16 15 13 8 -4z m-1206 -40
c0 -8 -4 -12 -9 -9 -5 3 -6 10 -3 15 9 13 12 11 12 -6z m9621 -30 c-3 -3 -9 2
-12 12 -6 14 -5 15 5 6 7 -7 10 -15 7 -18z m-9527 -12 c13 -16 12 -17 -3 -4
-10 7 -18 15 -18 17 0 8 8 3 21 -13z m-51 -26 c0 -5 -5 -5 -11 -2 -6 4 -17 -1
-25 -11 -11 -14 -11 -11 2 15 12 26 18 31 25 20 5 -8 9 -18 9 -22z m9575 15
c-3 -3 -11 0 -18 7 -9 10 -8 11 6 5 10 -3 15 -9 12 -12z m-9481 -10 c3 -5 -1
-9 -9 -9 -8 0 -15 4 -15 9 0 4 4 8 9 8 6 0 12 -4 15 -8z m61 -32 c3 -6 -1 -7
-9 -4 -18 7 -21 14 -7 14 6 0 13 -4 16 -10z m-685 -30 c0 -5 -5 -10 -11 -10
-5 0 -7 5 -4 10 3 6 8 10 11 10 2 0 4 -4 4 -10z m780 0 c13 -9 13 -10 0 -10
-8 0 -22 5 -30 10 -13 9 -13 10 0 10 8 0 22 -5 30 -10z m45 -18 c-3 -3 -11 0
-18 7 -9 10 -8 11 6 5 10 -3 15 -9 12 -12z m4192 3 c0 -8 -4 -12 -9 -9 -5 3
-6 10 -3 15 9 13 12 11 12 -6z m5103 -5 c0 -5 -2 -10 -4 -10 -3 0 -8 5 -11 10
-3 6 -1 10 4 10 6 0 11 -4 11 -10z m-9195 -20 c3 -6 -1 -7 -9 -4 -18 7 -21 14
-7 14 6 0 13 -4 16 -10z m4102 -7 c-4 -3 -1 -13 6 -22 11 -14 10 -14 -5 -2
-16 12 -16 31 -1 31 4 0 3 -3 0 -7z m-3530 -55 c-3 -8 -6 -5 -6 6 -1 11 2 17
5 13 3 -3 4 -12 1 -19z m-17 -13 c0 -11 -9 -15 -29 -13 -16 1 -27 6 -25 10 3
5 9 6 13 4 4 -3 13 -1 21 5 20 12 20 11 20 -6z m-36 -84 c-4 -14 -7 -27 -8
-27 -1 -1 -10 13 -22 30 l-20 32 28 -4 c24 -4 27 -7 22 -31z m8533 -6 c0 -8
-4 -12 -9 -9 -5 3 -6 10 -3 15 9 13 12 11 12 -6z m-9574 -10 c-3 -9 -8 -14
-10 -11 -3 3 -2 9 2 15 9 16 15 13 8 -4z m-17 -51 c-4 -9 -9 -15 -11 -12 -3 3
-3 13 1 22 4 9 9 15 11 12 3 -3 3 -13 -1 -22z m1111 11 c0 -8 -4 -12 -9 -9 -5
3 -6 10 -3 15 9 13 12 11 12 -6z m-1132 -72 c-2 -10 -4 -21 -4 -25 -1 -5 -6
-8 -12 -8 -6 0 -7 5 -2 13 4 6 8 15 9 20 3 14 4 17 8 17 2 0 3 -8 1 -17z
m4735 -38 c0 -5 -5 -3 -10 5 -5 8 -10 20 -10 25 0 6 5 3 10 -5 5 -8 10 -19 10
-25z m-4754 -29 c0 -14 -5 -21 -9 -17 -4 4 -5 15 -1 24 9 24 12 21 10 -7z
m1151 2 c-3 -8 -6 -5 -6 6 -1 11 2 17 5 13 3 -3 4 -12 1 -19z m7358 -158 c10
-11 16 -20 13 -20 -3 0 -13 9 -23 20 -10 11 -16 20 -13 20 3 0 13 -9 23 -20z
m1265 -10 c0 -5 -2 -10 -4 -10 -3 0 -8 5 -11 10 -3 6 -1 10 4 10 6 0 11 -4 11
-10z m-10120 -14 c0 -3 -4 -8 -10 -11 -5 -3 -10 -1 -10 4 0 6 5 11 10 11 6 0
10 -2 10 -4z m297 -11 c0 -8 -4 -12 -9 -9 -5 3 -6 10 -3 15 9 13 12 11 12 -6z
m8553 -34 c0 -13 -29 -41 -42 -41 -6 0 0 11 13 24 28 28 29 29 29 17z m-8855
-21 c3 -5 1 -10 -4 -10 -6 0 -11 5 -11 10 0 6 2 10 4 10 3 0 8 -4 11 -10z
m9095 -16 c0 -8 -19 -13 -24 -6 -3 5 1 9 9 9 8 0 15 -2 15 -3z m54 -11 c3 -4
12 -8 19 -9 7 -1 23 -7 37 -13 l25 -12 -25 6 c-14 3 -29 7 -35 8 -18 5 -50 26
-39 27 6 0 14 -3 18 -7z m-9138 -23 c0 -11 -4 -20 -8 -20 -10 0 -11 24 -1 33
9 9 9 10 9 -13z m8783 -4 c-13 -14 -26 -23 -28 -20 -6 6 30 44 42 44 5 0 -1
-11 -14 -24z m1318 -8 c-3 -7 -5 -2 -5 12 0 14 2 19 5 13 2 -7 2 -19 0 -25z
m-4906 -15 c13 -16 12 -17 -3 -4 -10 7 -18 15 -18 17 0 8 8 3 21 -13z m4056
11 c-3 -3 -12 -4 -19 -1 -8 3 -5 6 6 6 11 1 17 -2 13 -5z m43 -14 c8 -5 11
-10 5 -10 -5 0 -17 5 -25 10 -8 5 -10 10 -5 10 6 0 17 -5 25 -10z m-557 -15
c-3 -9 -8 -14 -10 -11 -3 3 -2 9 2 15 9 16 15 13 8 -4z m672 -33 c-3 -3 -11 0
-18 7 -9 10 -8 11 6 5 10 -3 15 -9 12 -12z m683 -27 c-1 -20 -4 -31 -8 -25 -7
11 -2 60 6 60 2 0 3 -16 2 -35z m-10083 -24 c3 -5 2 -12 -3 -15 -5 -3 -9 1 -9
9 0 17 3 19 12 6z m9680 -20 c-6 -5 -25 10 -25 20 0 5 6 4 14 -3 8 -7 12 -15
11 -17z m-1025 5 c0 -2 -8 -10 -17 -17 -16 -13 -17 -12 -4 4 13 16 21 21 21
13z m941 -19 l24 -18 -25 13 c-14 7 -28 12 -32 13 -3 0 -9 3 -13 7 -14 14 23
2 46 -15z m-9594 -19 c-3 -8 -6 -5 -6 6 -1 11 2 17 5 13 3 -3 4 -12 1 -19z
m10076 9 c3 -8 2 -20 -3 -26 -5 -9 -7 -4 -7 13 0 29 2 32 10 13z m-404 -53
c19 -24 31 -47 27 -51 -3 -3 -6 -1 -6 4 0 6 -16 28 -35 47 -35 37 -41 46 -27
46 4 0 22 -21 41 -46z m70 16 c11 -24 11 -24 -3 -6 -9 11 -16 24 -16 30 0 12
5 7 19 -24z m-4486 -10 c3 -11 2 -18 -3 -15 -4 3 -10 14 -13 25 -3 11 -2 18 3
15 4 -3 10 -14 13 -25z m3237 -13 c0 -2 -10 -12 -22 -23 l-23 -19 19 23 c18
21 26 27 26 19z m1580 -11 c0 -3 -4 -8 -10 -11 -5 -3 -10 -1 -10 4 0 6 5 11
10 11 6 0 10 -2 10 -4z m-10063 -28 c-3 -8 -6 -5 -6 6 -1 11 2 17 5 13 3 -3 4
-12 1 -19z m213 2 c0 -5 -2 -10 -4 -10 -3 0 -8 5 -11 10 -3 6 -1 10 4 10 6 0
11 -4 11 -10z m1337 -5 c0 -8 -4 -12 -9 -9 -5 3 -6 10 -3 15 9 13 12 11 12 -6z
m6893 -8 c0 -2 -10 -12 -22 -23 l-23 -19 19 23 c18 21 26 27 26 19z m-3152
-52 c-3 -3 -9 2 -12 12 -6 14 -5 15 5 6 7 -7 10 -15 7 -18z m4430 0 c-3 -3 -9
2 -12 12 -6 14 -5 15 5 6 7 -7 10 -15 7 -18z m325 5 c3 -11 2 -22 -2 -24 -4
-3 -8 6 -9 20 -2 29 4 31 11 4z m-8483 6 c0 -3 -4 -8 -10 -11 -5 -3 -10 -1
-10 4 0 6 5 11 10 11 6 0 10 -2 10 -4z m6830 -21 c-7 -9 -15 -13 -19 -10 -3 3
1 10 9 15 21 14 24 12 10 -5z m-6823 -37 c4 -28 -6 -18 -12 12 -2 12 -1 20 2
16 4 -4 8 -16 10 -28z m3740 -30 c-3 -8 -6 -5 -6 6 -1 11 2 17 5 13 3 -3 4
-12 1 -19z m2993 -32 c0 -2 -8 -10 -17 -17 -16 -13 -17 -12 -4 4 13 16 21 21
21 13z m-6712 -47 c-3 -8 -7 -3 -11 10 -4 17 -3 21 5 13 5 -5 8 -16 6 -23z
m8182 11 c0 -11 -2 -20 -4 -20 -2 0 -6 9 -9 20 -3 11 -1 20 4 20 5 0 9 -9 9
-20z m-8173 -52 c-3 -8 -6 -5 -6 6 -1 11 2 17 5 13 3 -3 4 -12 1 -19z m6633 2
c0 -5 -5 -10 -11 -10 -5 0 -7 5 -4 10 3 6 8 10 11 10 2 0 4 -4 4 -10z m-6622
-45 c-3 -3 -9 2 -12 12 -6 14 -5 15 5 6 7 -7 10 -15 7 -18z m8202 -40 c0 -5
-5 -3 -10 5 -5 8 -10 20 -10 25 0 6 5 3 10 -5 5 -8 10 -19 10 -25z m-8185 -5
c3 -5 1 -10 -4 -10 -6 0 -11 5 -11 10 0 6 2 10 4 10 3 0 8 -4 11 -10z m6505
-14 c0 -2 -8 -10 -17 -17 -16 -13 -17 -12 -4 4 13 16 21 21 21 13z m-6490 -61
c0 -5 -5 -3 -10 5 -5 8 -10 20 -10 25 0 6 5 3 10 -5 5 -8 10 -19 10 -25z m10
-35 c0 -5 -2 -10 -4 -10 -3 0 -8 5 -11 10 -3 6 -1 10 4 10 6 0 11 -4 11 -10z
m6371 -23 c-10 -9 -11 -8 -5 6 3 10 9 15 12 12 3 -3 0 -11 -7 -18z m-7924 -2
c0 -8 -4 -15 -9 -15 -10 0 -11 14 -1 23 9 10 10 9 10 -8z m5327 -26 c1 -8 8
-24 14 -37 11 -18 10 -26 -3 -45 -15 -22 -15 -21 -9 10 4 21 2 39 -6 48 -7 8
-9 15 -6 15 4 0 1 10 -5 23 -9 17 -9 19 0 11 7 -6 13 -18 15 -25z m2573 -1
c-3 -8 -6 -5 -6 6 -1 11 2 17 5 13 3 -3 4 -12 1 -19z m-6323 -34 c3 -8 2 -12
-4 -9 -6 3 -10 10 -10 16 0 14 7 11 14 -7z m6276 -12 c0 -4 -10 -13 -22 -21
-23 -14 -23 -14 -4 8 20 22 26 25 26 13z m1988 -17 c-3 -3 -9 2 -12 12 -6 14
-5 15 5 6 7 -7 10 -15 7 -18z m-4444 -31 c9 -3 16 -10 16 -15 0 -4 -7 -6 -15
-3 -8 4 -23 0 -32 -7 -15 -13 -15 -12 -2 9 8 12 15 22 16 22 1 0 8 -3 17 -6z
m141 -22 c-3 -3 -11 0 -18 7 -9 10 -8 11 6 5 10 -3 15 -9 12 -12z m2255 8 c0
-5 -5 -10 -11 -10 -5 0 -7 5 -4 10 3 6 8 10 11 10 2 0 4 -4 4 -10z m-6183 -27
c-4 -3 -1 -13 6 -22 11 -14 10 -14 -5 -2 -16 12 -16 31 -1 31 4 0 3 -3 0 -7z
m3724 -16 c-10 -9 -11 -8 -5 6 3 10 9 15 12 12 3 -3 0 -11 -7 -18z m269 13 c8
-5 12 -11 10 -14 -3 -2 -14 2 -24 10 -22 15 -10 19 14 4z m2138 -20 c-7 -11
-17 -20 -22 -20 -5 0 -1 9 9 20 10 11 20 20 22 20 2 0 -2 -9 -9 -20z m2069
-15 c0 -8 -4 -12 -9 -9 -5 3 -6 10 -3 15 9 13 12 11 12 -6z m-2114 -30 c-3 -9
-8 -14 -10 -11 -3 3 -2 9 2 15 9 16 15 13 8 -4z m-7645 -30 c-3 -3 -9 2 -12
12 -6 14 -5 15 5 6 7 -7 10 -15 7 -18z m5782 5 c0 -5 -5 -10 -11 -10 -5 0 -7
5 -4 10 3 6 8 10 11 10 2 0 4 -4 4 -10z m-4162 -85 c-3 -3 -9 2 -12 12 -6 14
-5 15 5 6 7 -7 10 -15 7 -18z m3502 21 c0 -2 -8 -10 -17 -17 -16 -13 -17 -12
-4 4 13 16 21 21 21 13z m2370 -70 c0 -2 -7 -7 -16 -10 -8 -3 -12 -2 -9 4 6
10 25 14 25 6z m-5842 -31 c-3 -3 -9 2 -12 12 -6 14 -5 15 5 6 7 -7 10 -15 7
-18z m3370 -15 c-16 -16 -32 -30 -36 -30 -3 0 7 14 23 30 16 17 32 30 36 30 4
0 -6 -13 -23 -30z m1552 -46 c0 -8 -19 -13 -24 -6 -3 5 1 9 9 9 8 0 15 -2 15
-3z m3110 2 c0 -2 -8 -10 -17 -17 -16 -13 -17 -12 -4 4 13 16 21 21 21 13z
m-4741 -52 c-6 -8 -17 -14 -23 -14 -6 0 -3 5 7 11 9 6 14 15 11 21 -4 7 -2 8
5 4 9 -6 9 -11 0 -22z m-67 -73 c-26 -28 -48 -48 -50 -46 -3 2 2 10 9 18 8 8
26 28 42 46 15 17 31 31 36 31 5 0 -12 -22 -37 -49z m2403 30 c-3 -6 -21 -11
-38 -10 l-32 1 35 12 c38 14 46 13 35 -3z m85 5 c0 -2 -8 -10 -17 -17 -16 -13
-17 -12 -4 4 13 16 21 21 21 13z m-116 -75 c6 -10 5 -16 -2 -19 -7 -2 -9 -9
-6 -14 5 -7 2 -8 -5 -4 -7 5 -10 11 -7 14 3 3 -1 13 -10 23 -14 15 -14 17 3
15 10 0 22 -8 27 -15z m2376 -11 c0 -5 -5 -10 -11 -10 -5 0 -7 5 -4 10 3 6 8
10 11 10 2 0 4 -4 4 -10z m-4810 -10 c0 -12 -57 -70 -63 -64 -2 3 10 20 27 38
36 39 36 39 36 26z m-3012 -75 c-3 -3 -9 2 -12 12 -6 14 -5 15 5 6 7 -7 10
-15 7 -18z m2942 -5 c0 -5 -2 -10 -4 -10 -3 0 -8 5 -11 10 -3 6 -1 10 4 10 6
0 11 -4 11 -10z m-43 -44 c-15 -14 -27 -22 -27 -19 0 11 43 53 48 48 3 -3 -7
-16 -21 -29z m2536 -21 c-3 -9 -8 -14 -10 -11 -3 3 -2 9 2 15 9 16 15 13 8 -4z
m-5349 -54 c-6 -6 -44 36 -44 49 0 6 11 -2 24 -17 13 -15 22 -30 20 -32z
m2759 20 c-11 -10 -30 -31 -42 -46 -12 -16 -23 -26 -26 -23 -3 3 14 26 37 51
23 26 44 45 47 42 2 -3 -5 -14 -16 -24z m-2729 -37 c3 -8 2 -12 -4 -9 -6 3
-10 10 -10 16 0 14 7 11 14 -7z m-114 -18 c0 -2 -8 -10 -17 -17 -16 -13 -17
-12 -4 4 13 16 21 21 21 13z m37 -2 c-3 -3 -12 -4 -19 -1 -8 3 -5 6 6 6 11 1
17 -2 13 -5z m63 -23 c0 -5 -9 -7 -20 -4 -11 3 -20 7 -20 9 0 2 9 4 20 4 11 0
20 -4 20 -9z m2653 -8 c-7 -3 -13 -9 -13 -14 0 -5 -21 -28 -47 -51 -26 -24
-63 -59 -83 -78 -73 -72 -126 -116 -100 -85 14 16 36 38 50 50 14 11 63 59
110 106 47 47 87 84 90 81 3 -2 -1 -7 -7 -9z m4947 -3 c0 -5 -5 -10 -11 -10
-5 0 -7 5 -4 10 3 6 8 10 11 10 2 0 4 -4 4 -10z m-7798 -44 c-20 -19 -39 -33
-40 -31 -5 5 61 64 70 65 4 0 -9 -15 -30 -34z m-1431 -3 c13 -16 12 -17 -3 -4
-10 7 -18 15 -18 17 0 8 8 3 21 -13z m1940 -60 c13 -16 12 -17 -3 -4 -10 7
-18 15 -18 17 0 8 8 3 21 -13z m-616 -32 c-3 -6 -11 -11 -16 -11 -5 0 -4 6 3
14 14 16 24 13 13 -3z m775 -41 c8 -5 11 -10 5 -10 -5 0 -17 5 -25 10 -8 5
-10 10 -5 10 6 0 17 -5 25 -10z m-825 -10 c-3 -5 -12 -10 -18 -10 -7 0 -6 4 3
10 19 12 23 12 15 0z m-25 -23 c0 -2 -10 -12 -21 -23 -22 -19 -22 -19 -8 4 12
19 29 30 29 19z m935 -7 c3 -5 1 -10 -4 -10 -6 0 -11 5 -11 10 0 6 2 10 4 10
3 0 8 -4 11 -10z m-994 -53 c-10 -9 -11 -8 -5 6 3 10 9 15 12 12 3 -3 0 -11
-7 -18z m2819 14 c0 -5 -7 -12 -16 -15 -14 -5 -15 -4 -4 9 14 17 20 19 20 6z
m-1665 -31 c3 -6 -1 -7 -9 -4 -18 7 -21 14 -7 14 6 0 13 -4 16 -10z m-1210
-40 c-10 -11 -20 -18 -22 -16 -6 5 30 44 36 39 2 -1 -4 -12 -14 -23z m1279 14
c3 -8 2 -12 -4 -9 -6 3 -10 10 -10 16 0 14 7 11 14 -7z m1536 3 c0 -2 -10 -12
-22 -23 l-23 -19 19 23 c18 21 26 27 26 19z m-1435 -45 c-3 -3 -11 0 -18 7 -9
10 -8 11 6 5 10 -3 15 -9 12 -12z m-2344 -19 c13 -16 12 -17 -3 -4 -10 7 -18
15 -18 17 0 8 8 3 21 -13z m2494 -23 c3 -5 1 -10 -4 -10 -6 0 -11 5 -11 10 0
6 2 10 4 10 3 0 8 -4 11 -10z m75 -20 c8 -5 11 -10 5 -10 -5 0 -17 5 -25 10
-8 5 -10 10 -5 10 6 0 17 -5 25 -10z m-1706 -19 c-10 -10 -21 -16 -24 -14 -3
3 4 11 14 19 28 20 33 17 10 -5z m1791 -9 c-3 -3 -11 0 -18 7 -9 10 -8 11 6 5
10 -3 15 -9 12 -12z m42 -8 c-3 -3 -12 -4 -19 -1 -8 3 -5 6 6 6 11 1 17 -2 13
-5z m38 -12 c-3 -3 -11 0 -18 7 -9 10 -8 11 6 5 10 -3 15 -9 12 -12z m-1905 4
c0 -2 -8 -10 -17 -17 -16 -13 -17 -12 -4 4 13 16 21 21 21 13z m1985 -16 c3
-5 1 -10 -4 -10 -6 0 -11 5 -11 10 0 6 2 10 4 10 3 0 8 -4 11 -10z m40 -18
c-3 -3 -11 0 -18 7 -9 10 -8 11 6 5 10 -3 15 -9 12 -12z m69 0 c3 -5 -1 -9 -9
-9 -8 0 -12 4 -9 9 3 4 7 8 9 8 2 0 6 -4 9 -8z m5862 -20 c-17 -16 -18 -16 -5
5 7 12 15 20 18 17 3 -2 -3 -12 -13 -22z m-7988 4 c-10 -7 -14 -17 -10 -21 4
-5 1 -5 -7 0 -12 7 -11 10 4 22 24 17 36 17 13 -1z m2812 1 c0 -2 -10 -12 -22
-23 l-23 -19 19 23 c18 21 26 27 26 19z m-3512 -32 c-3 -3 -9 2 -12 12 -6 14
-5 15 5 6 7 -7 10 -15 7 -18z m3442 11 c0 -2 -7 -7 -16 -10 -8 -3 -12 -2 -9 4
6 10 25 14 25 6z m-2782 -37 c-6 -16 -12 -28 -14 -26 -5 5 13 57 20 57 3 0 0
-14 -6 -31z m2732 -2 c0 -2 -8 -11 -19 -21 -17 -15 -19 -15 -32 1 -8 9 -9 14
-4 11 6 -4 17 -3 25 3 15 9 30 12 30 6z m28 -67 c-2 -4 -12 2 -23 13 -11 11
-14 17 -7 13 7 -5 12 -1 13 11 0 14 3 12 10 -6 5 -13 8 -27 7 -31z m-2787 7
c-10 -9 -11 -8 -5 6 3 10 9 15 12 12 3 -3 0 -11 -7 -18z m2593 11 c-3 -4 -11
-5 -19 -1 -21 7 -19 12 4 10 11 0 18 -5 15 -9z m5387 -15 c-12 -20 -14 -14 -5
12 4 9 9 14 11 11 3 -2 0 -13 -6 -23z m-5346 7 c3 -6 -1 -7 -9 -4 -18 7 -21
14 -7 14 6 0 13 -4 16 -10z m101 -26 c11 -5 58 -94 49 -94 -2 0 -13 17 -24 38
-15 30 -78 83 -88 74 -8 -6 -23 -1 -23 8 0 6 16 3 38 -6 20 -9 42 -18 48 -20z
m-3306 16 c0 -5 -2 -10 -4 -10 -3 0 -8 5 -11 10 -3 6 -1 10 4 10 6 0 11 -4 11
-10z m8513 -65 c-3 -9 -8 -14 -10 -11 -3 3 -2 9 2 15 9 16 15 13 8 -4z m-8453
-30 c14 -19 14 -19 -2 -6 -10 7 -18 18 -18 24 0 6 1 8 3 6 1 -2 9 -13 17 -24z
m8386 -63 c-17 -16 -18 -16 -5 5 7 12 15 20 18 17 3 -2 -3 -12 -13 -22z
m-8321 -22 c3 -6 -1 -7 -9 -4 -18 7 -21 14 -7 14 6 0 13 -4 16 -10z m429 -26
c3 -8 2 -12 -4 -9 -6 3 -10 10 -10 16 0 14 7 11 14 -7z m7866 6 c0 -5 -5 -10
-11 -10 -5 0 -7 5 -4 10 3 6 8 10 11 10 2 0 4 -4 4 -10z m-8279 -17 c13 -16
12 -17 -3 -4 -10 7 -18 15 -18 17 0 8 8 3 21 -13z m37 -58 c-3 -3 -9 2 -12 12
-6 14 -5 15 5 6 7 -7 10 -15 7 -18z m3295 10 c4 -8 3 -16 -1 -19 -4 -3 -9 4
-9 15 -2 23 3 25 10 4z m27 -70 c14 -19 14 -19 -2 -6 -10 7 -18 18 -18 24 0 6
1 8 3 6 1 -2 9 -13 17 -24z m-3260 -5 c0 -5 -2 -10 -4 -10 -3 0 -8 5 -11 10
-3 6 -1 10 4 10 6 0 11 -4 11 -10z m3280 -30 c0 -5 -5 -10 -11 -10 -5 0 -7 5
-4 10 3 6 8 10 11 10 2 0 4 -4 4 -10z m18 -51 c-3 -8 -7 -3 -11 10 -4 17 -3
21 5 13 5 -5 8 -16 6 -23z m-3238 1 c0 -5 -2 -10 -4 -10 -3 0 -8 5 -11 10 -3
6 -1 10 4 10 6 0 11 -4 11 -10z m7960 0 c0 -5 -5 -10 -11 -10 -5 0 -7 5 -4 10
3 6 8 10 11 10 2 0 4 -4 4 -10z m-7935 -38 c-3 -3 -11 0 -18 7 -9 10 -8 11 6
5 10 -3 15 -9 12 -12z m3255 -46 c0 -6 -7 -1 -15 10 -8 10 -15 23 -15 28 0 6
7 1 15 -10 8 -10 15 -23 15 -28z m20 -26 c0 -5 -2 -10 -4 -10 -3 0 -8 5 -11
10 -3 6 -1 10 4 10 6 0 11 -4 11 -10z m4560 -14 c0 -2 -7 -7 -16 -10 -8 -3
-12 -2 -9 4 6 10 25 14 25 6z m-4530 -37 c15 -28 5 -23 -15 7 -9 15 -12 23 -6
20 6 -4 16 -16 21 -27z m4490 -4 c-7 -8 -17 -15 -23 -15 -6 0 -2 7 9 15 25 19
30 19 14 0z m-4460 -35 c0 -5 -2 -10 -4 -10 -3 0 -8 5 -11 10 -3 6 -1 10 4 10
6 0 11 -4 11 -10z m4371 -61 c-36 -39 -89 -95 -118 -124 -28 -29 -48 -57 -45
-61 4 -4 2 -4 -5 0 -6 3 -16 -2 -22 -11 -5 -10 -12 -15 -15 -12 -3 3 13 24 36
46 24 22 83 84 132 137 49 53 93 96 97 96 4 0 -23 -32 -60 -71z m-1516 21 c3
-5 1 -10 -4 -10 -6 0 -11 5 -11 10 0 6 2 10 4 10 3 0 8 -4 11 -10z m-5995 -22
c0 -6 -6 -5 -15 2 -8 7 -15 14 -15 16 0 2 7 1 15 -2 8 -4 15 -11 15 -16z
m3170 2 c6 -11 8 -20 6 -20 -3 0 -10 9 -16 20 -6 11 -8 20 -6 20 3 0 10 -9 16
-20z m-3139 -23 c-1 -12 -15 -9 -19 4 -3 6 1 10 8 8 6 -3 11 -8 11 -12z m5954
-44 c-2 -21 2 -44 8 -52 9 -11 7 -12 -8 -9 -11 2 -19 9 -18 15 1 6 3 27 5 47
1 20 5 36 10 36 4 0 5 -17 3 -37z m-2744 -30 c13 -16 12 -17 -3 -4 -17 13 -22
21 -14 21 2 0 10 -8 17 -17z m2679 -23 c0 -5 -5 -10 -11 -10 -5 0 -7 5 -4 10
3 6 8 10 11 10 2 0 4 -4 4 -10z m-5786 -29 c-2 -3 -12 3 -22 13 -16 17 -16 18
5 5 12 -7 20 -15 17 -18z m61 -51 c10 -11 16 -20 13 -20 -3 0 -15 9 -28 20
-13 11 -19 20 -13 20 5 0 18 -9 28 -20z m5827 2 c7 -7 -4 -7 -32 0 -31 8 -48
8 -60 0 -18 -11 -30 -7 -30 9 0 12 110 3 122 -9z m-136 1 c-8 -8 -119 -43
-123 -39 -4 3 71 32 102 39 11 3 22 5 24 6 2 0 1 -2 -3 -6z m-2536 -43 c6 -11
8 -20 6 -20 -3 0 -10 9 -16 20 -6 11 -8 20 -6 20 3 0 10 -9 16 -20z m3927 -3
c-12 -13 -24 -22 -26 -20 -6 4 30 43 40 43 5 0 -2 -10 -14 -23z m-7036 -4 c13
-15 12 -15 -8 -4 -24 12 -29 21 -14 21 5 0 15 -7 22 -17z m5509 7 c0 -5 -5
-10 -11 -10 -5 0 -7 5 -4 10 3 6 8 10 11 10 2 0 4 -4 4 -10z m-5480 -40 c0 -5
-2 -10 -4 -10 -3 0 -8 5 -11 10 -3 6 -1 10 4 10 6 0 11 -4 11 -10z m3124 -6
c3 -8 2 -12 -4 -9 -6 3 -10 10 -10 16 0 14 7 11 14 -7z m3836 -9 c-7 -8 -16
-15 -21 -15 -5 0 -1 8 9 18 20 22 31 19 12 -3z m-6887 -54 c-2 -3 -18 10 -36
29 l-32 34 36 -30 c20 -16 34 -31 32 -33z m5021 51 c3 -5 -1 -9 -9 -9 -8 0
-12 4 -9 9 3 4 7 8 9 8 2 0 6 -4 9 -8z m-84 -32 c0 -5 -5 -10 -11 -10 -5 0 -7
5 -4 10 3 6 8 10 11 10 2 0 4 -4 4 -10z m-35 -10 c-3 -5 -12 -10 -18 -10 -7 0
-6 4 3 10 19 12 23 12 15 0z m-85 -30 c-8 -5 -22 -9 -30 -9 -10 0 -8 3 5 9 27
12 43 12 25 0z m-50 -14 c0 -2 -9 -6 -20 -9 -11 -3 -18 -1 -14 4 5 9 34 13 34
5z m1655 -16 c3 -6 -1 -7 -9 -4 -18 7 -21 14 -7 14 6 0 13 -4 16 -10z m-6347
-25 c-3 -3 -9 2 -12 12 -6 14 -5 15 5 6 7 -7 10 -15 7 -18z m4562 11 c0 -3 -4
-8 -10 -11 -5 -3 -10 -1 -10 4 0 6 5 11 10 11 6 0 10 -2 10 -4z m-1459 -23
c13 -16 12 -17 -3 -4 -17 13 -22 21 -14 21 2 0 10 -8 17 -17z m1309 -23 c-8
-5 -19 -10 -25 -10 -5 0 -3 5 5 10 8 5 20 10 25 10 6 0 3 -5 -5 -10z m-1289
-67 c13 -15 12 -15 -8 -4 -24 12 -29 21 -14 21 5 0 15 -7 22 -17z m48 -59 c18
-19 30 -38 26 -42 -3 -4 -11 2 -17 13 -6 11 -22 30 -34 42 -13 13 -20 23 -15
23 4 0 22 -16 40 -36z m696 16 c-3 -5 -12 -10 -18 -10 -7 0 -6 4 3 10 19 12
23 12 15 0z m-52 -17 c-7 -2 -19 -2 -25 0 -7 3 -2 5 12 5 14 0 19 -2 13 -5z
m-178 -23 c3 -6 -1 -7 -9 -4 -18 7 -21 14 -7 14 6 0 13 -4 16 -10z m-345 -36
c0 -2 -9 -4 -21 -4 -11 0 -18 4 -14 10 5 8 35 3 35 -6z m-70 -15 c0 -5 -4 -9
-10 -9 -5 0 -10 7 -10 16 0 8 5 12 10 9 6 -3 10 -10 10 -16z m3133 -14 c-3 -9
-8 -14 -10 -11 -3 3 -2 9 2 15 9 16 15 13 8 -4z m-33 -20 c0 -2 -10 -9 -22
-15 -22 -11 -22 -10 -4 4 21 17 26 19 26 11z m-3100 -24 c0 -11 -4 -22 -9 -25
-5 -3 -8 5 -7 19 1 29 16 34 16 6z m60 5 c0 -3 -4 -8 -10 -11 -5 -3 -10 -1
-10 4 0 6 5 11 10 11 6 0 10 -2 10 -4z m-87 -61 c-3 -9 -8 -14 -10 -11 -3 3
-2 9 2 15 9 16 15 13 8 -4z m3017 0 c-7 -8 -17 -15 -23 -15 -6 0 -2 7 9 15 25
19 30 19 14 0z m-55 -35 c-3 -5 -16 -15 -28 -21 -19 -9 -19 -8 3 10 28 23 34
26 25 11z m-84 -63 c-10 -9 -11 -8 -5 6 3 10 9 15 12 12 3 -3 0 -11 -7 -18z
m-21 -1 c0 -2 -8 -10 -17 -17 -16 -13 -17 -12 -4 4 13 16 21 21 21 13z m-5115
-186 c3 -5 1 -10 -4 -10 -6 0 -11 5 -11 10 0 6 2 10 4 10 3 0 8 -4 11 -10z
m2015 -100 c0 -5 -5 -10 -11 -10 -5 0 -7 5 -4 10 3 6 8 10 11 10 2 0 4 -4 4
-10z m-1745 -40 c3 -6 -1 -7 -9 -4 -18 7 -21 14 -7 14 6 0 13 -4 16 -10z m262
-106 c-3 -3 -12 -4 -19 -1 -8 3 -5 6 6 6 11 1 17 -2 13 -5z m1327 -76 c-27
-35 -56 -70 -65 -79 -9 -9 -21 -23 -25 -30 -5 -8 -27 -27 -49 -43 -38 -27 -38
-26 8 16 26 24 47 46 47 50 0 3 15 22 33 41 52 56 87 101 87 111 0 5 3 6 7 3
3 -4 -16 -35 -43 -69z m-1244 42 c8 -5 11 -10 5 -10 -5 0 -17 5 -25 10 -8 5
-10 10 -5 10 6 0 17 -5 25 -10z m45 -20 c3 -6 -1 -7 -9 -4 -18 7 -21 14 -7 14
6 0 13 -4 16 -10z m110 -40 c3 -6 -1 -7 -9 -4 -18 7 -21 14 -7 14 6 0 13 -4
16 -10z m200 -60 c3 -6 -1 -7 -9 -4 -18 7 -21 14 -7 14 6 0 13 -4 16 -10z
m698 -115 c-3 -9 -8 -14 -10 -11 -3 3 -2 9 2 15 9 16 15 13 8 -4z m-23 -9 c0
-2 -8 -10 -17 -17 -16 -13 -17 -12 -4 4 13 16 21 21 21 13z m76 -31 c1 -8 -4
-11 -11 -8 -8 2 -11 11 -8 19 6 16 16 11 19 -11z m619 -53 c-3 -3 -11 0 -18 7
-9 10 -8 11 6 5 10 -3 15 -9 12 -12z m149 1 c4 -11 1 -11 -14 -3 -24 13 -25
17 -5 17 8 0 16 -6 19 -14z m76 6 c0 -3 -14 -6 -32 -7 -22 0 -28 2 -18 8 15
10 50 9 50 -1z m85 -1 c3 -3 -13 -5 -35 -5 -21 0 -37 3 -35 7 5 8 62 6 70 -2z
m35 2 c0 -5 -5 -10 -11 -10 -5 0 -7 5 -4 10 3 6 8 10 11 10 2 0 4 -4 4 -10z
m70 5 c0 -7 -39 -12 -49 -5 -7 4 1 7 18 8 17 0 31 -1 31 -3z m58 -2 c-10 -2
-26 -2 -35 0 -10 3 -2 5 17 5 19 0 27 -2 18 -5z m-529 -13 c-6 -5 -18 -6 -26
-3 -19 8 -16 11 13 11 17 0 22 -3 13 -8z m164 3 c3 -5 -10 -8 -29 -8 -19 0
-34 3 -34 8 0 4 13 7 29 7 17 0 32 -3 34 -7z"/>
</g>
</svg>
